<svg width="36" height="36" viewBox="0 0 36 36" fill="none" xmlns="http://www.w3.org/2000/svg">
  <path
    d="M15.0003 4.5271C14.8525 4.5271 14.7062 4.498 14.5697 4.44146C14.4332 4.38493 14.3092 4.30206 14.2048 4.19759C14.1003 4.09313 14.0174 3.96911 13.9609 3.83262C13.9044 3.69613 13.8753 3.54984 13.8753 3.4021C13.8753 3.25436 13.9044 3.10807 13.9609 2.97158C14.0174 2.83509 14.1003 2.71107 14.2048 2.6066C14.3092 2.50214 14.4332 2.41927 14.5697 2.36274C14.7062 2.3062 14.8525 2.2771 15.0003 2.2771H20.3043C20.6026 2.2771 20.8888 2.39563 21.0998 2.6066C21.3107 2.81758 21.4293 3.10373 21.4293 3.4021C21.4293 3.70047 21.3107 3.98662 21.0998 4.19759C20.8888 4.40857 20.6026 4.5271 20.3043 4.5271H15.0003ZM9.79526 5.2051C10.0059 5.41604 10.1243 5.70197 10.1243 6.0001C10.1243 6.29823 10.0059 6.58416 9.79526 6.7951L6.04526 10.5451C5.832 10.7438 5.54993 10.852 5.25847 10.8469C4.96702 10.8417 4.68894 10.7237 4.48283 10.5175C4.27671 10.3114 4.15864 10.0333 4.1535 9.74188C4.14835 9.45043 4.25654 9.16836 4.45526 8.9551L8.20526 5.2051C8.4162 4.99442 8.70213 4.87609 9.00026 4.87609C9.29838 4.87609 9.58432 4.99442 9.79526 5.2051ZM18.0003 8.6251C15.8494 8.6251 13.7468 9.26291 11.9584 10.4579C10.17 11.6528 8.77617 13.3513 7.95307 15.3384C7.12996 17.3256 6.9146 19.5122 7.33422 21.6217C7.75383 23.7313 8.78958 25.669 10.3105 27.1899C11.8314 28.7108 13.7691 29.7465 15.8787 30.1661C17.9882 30.5858 20.1748 30.3704 22.1619 29.5473C24.1491 28.7242 25.8475 27.3303 27.0425 25.5419C28.2374 23.7535 28.8753 21.651 28.8753 19.5001C28.8753 19.2017 28.9938 18.9156 29.2048 18.7046C29.4157 18.4936 29.7019 18.3751 30.0003 18.3751C30.2986 18.3751 30.5848 18.4936 30.7958 18.7046C31.0067 18.9156 31.1253 19.2017 31.1253 19.5001C31.1253 22.096 30.3555 24.6336 28.9133 26.792C27.4711 28.9504 25.4213 30.6326 23.023 31.626C20.6247 32.6194 17.9857 32.8793 15.4397 32.3729C12.8937 31.8665 10.555 30.6164 8.71948 28.7809C6.88392 26.9453 5.63388 24.6067 5.12745 22.0607C4.62102 19.5147 4.88094 16.8757 5.87434 14.4774C6.86774 12.0791 8.55 10.0293 10.7084 8.58706C12.8668 7.14487 15.4044 6.3751 18.0003 6.3751C18.2986 6.3751 18.5848 6.49363 18.7958 6.7046C19.0067 6.91558 19.1253 7.20173 19.1253 7.5001C19.1253 7.79847 19.0067 8.08462 18.7958 8.29559C18.5848 8.50657 18.2986 8.6251 18.0003 8.6251Z"
    fill="#C9B5D6" fill-opacity="0.6" />
  <path
    d="M25.7816 12.546C25.9487 12.3295 26.0313 12.0595 26.0138 11.7865C25.9964 11.5136 25.88 11.2563 25.6866 11.0629C25.4932 10.8695 25.236 10.7532 24.963 10.7357C24.69 10.7182 24.4201 10.8008 24.2036 10.968L19.4486 14.6655L16.3406 16.8855C16.0425 17.0989 15.7944 17.3747 15.6136 17.6937C15.4328 18.0127 15.3236 18.3672 15.2936 18.7326C15.2636 19.0981 15.3135 19.4656 15.4399 19.8098C15.5663 20.154 15.7661 20.4666 16.0254 20.7258C16.2847 20.985 16.5973 21.1846 16.9416 21.3109C17.2858 21.4371 17.6534 21.4868 18.0189 21.4567C18.3843 21.4265 18.7387 21.3172 19.0576 21.1363C19.3765 20.9553 19.6522 20.7072 19.8656 20.409L22.0841 17.301L25.7816 12.546Z"
    fill="#C9B5D6" fill-opacity="0.6" />
</svg>
