<svg width="36" height="41" viewBox="0 0 36 41" fill="none" xmlns="http://www.w3.org/2000/svg">
  <g clip-path="url(#clip0_676_3412)">
    <path
      d="M33.59 11.1901C33.4673 11.0902 33.3226 11.021 33.1679 10.9879C33.0132 10.9549 32.8528 10.9591 32.7 11.0001L23.09 14.0001L13.46 9.11005C13.3284 9.04913 13.1851 9.01758 13.04 9.01758C12.895 9.01758 12.7516 9.04913 12.62 9.11005L2.62001 13.2001C2.43582 13.2757 2.27841 13.4047 2.16795 13.5703C2.05749 13.736 1.99902 13.9309 2.00001 14.1301V34.61C2.00083 34.7738 2.04186 34.9349 2.1195 35.0791C2.19715 35.2233 2.30902 35.3463 2.4453 35.4371C2.58158 35.528 2.73808 35.584 2.90107 35.6002C3.06405 35.6164 3.22851 35.5923 3.38001 35.53L13 31.58L22.59 36.5C22.7323 36.573 22.8901 36.6107 23.05 36.61C23.1494 36.6251 23.2506 36.6251 23.35 36.61L33.35 33.49C33.5607 33.424 33.7437 33.2901 33.8703 33.1092C33.9969 32.9283 34.0601 32.7106 34.05 32.49V12.0001C34.0448 11.8378 34.0002 11.6793 33.9201 11.5382C33.8399 11.3971 33.7266 11.2776 33.59 11.1901ZM32 31.75L23.68 34.35V32.06H22.08V34.06L13.68 29.75V28.06H12.08V29.78L4.00001 33.11V14.7901L12.08 11.4601V13.8101H13.68V11.4701L22.08 15.7701V17.8701H23.68V16.0001L32 13.3601V31.75Z"
      fill="#C9B5D6" fill-opacity="0.6" />
    <path d="M22.0801 20.0601H23.6801V23.8701H22.0801V20.0601Z" fill="#C9B5D6" fill-opacity="0.6" />
    <path d="M22.0801 26.0601H23.6801V29.8701H22.0801V26.0601Z" fill="#C9B5D6" fill-opacity="0.6" />
    <path d="M12.0801 16.0601H13.6801V19.8701H12.0801V16.0601Z" fill="#C9B5D6" fill-opacity="0.6" />
    <path d="M12.0801 22.1299H13.6801V25.8799H12.0801V22.1299Z" fill="#C9B5D6" fill-opacity="0.6" />
    <path
      d="M32.2412 10.7314C32.0356 11.0158 31.7456 11.2294 31.4133 11.3408L29.4633 11.9761C28.8758 12.1721 28.3597 12.538 27.9804 13.0275C27.7643 13.307 27.5969 13.6206 27.4864 13.957L26.8429 15.9314C26.7283 16.2622 26.5132 16.549 26.2277 16.7517C25.9422 16.9545 25.6006 17.0631 25.2504 17.0624C24.8995 17.0638 24.557 16.955 24.2714 16.7512C23.9846 16.5399 23.7676 16.2474 23.6482 15.9119L23.0136 13.9603C22.8593 13.5004 22.6009 13.0828 22.258 12.7383C21.9174 12.3962 21.5014 12.1388 21.0433 11.9867L19.0576 11.3416C18.8125 11.2542 18.5911 11.1113 18.4104 10.9241C18.2298 10.7369 18.0949 10.5104 18.0163 10.2625C17.9377 10.0145 17.9175 9.75168 17.9574 9.4946C17.9972 9.23752 18.0959 8.99315 18.2459 8.78057C18.4625 8.47823 18.7708 8.25372 19.125 8.14032L21.0799 7.50738C21.5397 7.35514 21.9576 7.09767 22.3003 6.75548C22.6431 6.41328 22.9013 5.9958 23.0543 5.53626L23.6994 3.55376C23.8147 3.22569 24.0294 2.9417 24.3136 2.74126C24.6002 2.54314 24.9403 2.43701 25.2886 2.43701C25.637 2.43701 25.9771 2.54314 26.2636 2.74126C26.5557 2.94672 26.7749 3.23983 26.8893 3.57813L27.5376 5.57363C27.6907 6.0198 27.9427 6.42557 28.2748 6.76058C28.6068 7.09559 29.0103 7.35117 29.4551 7.5082L31.4376 8.15007C31.6853 8.23748 31.9091 8.38148 32.0913 8.5706C32.2735 8.75973 32.409 8.98876 32.4871 9.23949C32.5652 9.49021 32.5837 9.7557 32.5412 10.0148C32.4986 10.274 32.3962 10.5196 32.242 10.7322M25.2439 15.4374H25.2537C25.265 15.4374 25.276 15.4342 25.2854 15.4279C25.2948 15.4217 25.3022 15.4128 25.3065 15.4024L25.9419 13.4533L25.9427 13.4492C26.1109 12.9373 26.3657 12.458 26.6959 12.0322L26.6975 12.0298C27.2731 11.2876 28.0557 10.7326 28.9465 10.4348L28.953 10.4332L30.8973 9.80026C30.9089 9.79539 30.9188 9.78728 30.9259 9.7769C30.9329 9.76652 30.9369 9.75431 30.9371 9.74176C30.9369 9.72992 30.9335 9.71837 30.9272 9.70834C30.9209 9.69832 30.912 9.69021 30.9014 9.68488L28.9351 9.04707L28.9148 9.03976C28.2387 8.80118 27.6253 8.41274 27.1206 7.90352C26.6159 7.39431 26.2329 6.77751 26.0004 6.09932L25.9963 6.08713L25.3479 4.0957C25.3447 4.08703 25.3398 4.07972 25.3333 4.07376C25.3197 4.06591 25.3043 4.06179 25.2886 4.06179C25.2729 4.06179 25.2575 4.06591 25.2439 4.07376C25.2396 4.07755 25.2364 4.08243 25.2342 4.08838L24.5988 6.03838L24.5956 6.04813C24.3628 6.74806 23.9698 7.38396 23.4479 7.90517C22.926 8.42639 22.2896 8.81852 21.5893 9.05032L19.6263 9.68651L19.6198 9.68813C19.6006 9.6946 19.5837 9.70644 19.5711 9.72226C19.5648 9.73187 19.5617 9.74315 19.562 9.7546C19.5622 9.76605 19.566 9.77715 19.5727 9.78644L19.5735 9.78807C19.5801 9.796 19.5881 9.80262 19.5971 9.80757L21.5454 10.4413L21.5552 10.4446C22.2543 10.6765 22.8894 11.0692 23.4093 11.591C23.9284 12.1127 24.3204 12.7468 24.5549 13.4443L24.5566 13.4516L25.1822 15.3756C25.1914 15.3973 25.2053 15.4167 25.2228 15.4325L25.2439 15.4374ZM14.1566 16.1207C14.063 16.3987 13.9061 16.6512 13.6983 16.8581C13.4904 17.0651 13.2373 17.221 12.9589 17.3134L11.6143 17.7522C11.3309 17.8401 11.0825 18.0154 10.9047 18.2529C10.7269 18.4905 10.6288 18.7782 10.6243 19.0748C10.6198 19.3715 10.7091 19.662 10.8796 19.9049C11.0502 20.1477 11.2931 20.3304 11.5736 20.4269L12.9329 20.8706C13.2117 20.9621 13.465 21.118 13.6723 21.3256C13.8796 21.5342 14.0361 21.7878 14.1298 22.0666L14.5669 23.4072C14.6646 23.6914 14.8494 23.9376 15.095 24.1108C15.3305 24.28 15.6126 24.3723 15.9026 24.3749C16.1952 24.376 16.4808 24.2858 16.7197 24.1168C16.9585 23.9479 17.1387 23.7086 17.2351 23.4324L17.6804 22.0706C17.7712 21.7908 17.9268 21.5363 18.1346 21.328C18.3435 21.1199 18.5976 20.9628 18.8772 20.8689L20.2203 20.4342C20.505 20.3372 20.7517 20.1523 20.9247 19.9061C21.0519 19.7281 21.1358 19.523 21.1698 19.3069C21.2038 19.0908 21.187 18.8698 21.1207 18.6613C21.0543 18.4529 20.9403 18.2628 20.7877 18.1061C20.6351 17.9494 20.448 17.8305 20.2414 17.7587L18.8756 17.3134C18.6023 17.2171 18.3547 17.0593 18.152 16.8523C17.9493 16.6452 17.7969 16.3944 17.7064 16.1191L17.2717 14.7784C17.2026 14.5687 17.0851 14.3781 16.9288 14.2222C16.7724 14.0663 16.5815 13.9493 16.3716 13.8808C16.1617 13.8123 15.9386 13.7942 15.7203 13.8279C15.5021 13.8616 15.2948 13.9462 15.1153 14.0748C14.8756 14.243 14.6953 14.4827 14.6002 14.7589L14.1566 16.1207ZM13.4716 18.8556C13.989 18.6837 14.4594 18.3939 14.8456 18.0091C15.2318 17.6243 15.5233 17.155 15.6971 16.6383L15.6995 16.6309L15.9327 15.9159L16.1643 16.6309C16.3349 17.1428 16.6193 17.6092 16.9963 17.9951L17.0003 17.9992C17.3749 18.3801 17.8319 18.67 18.3361 18.8466L18.3539 18.8523L19.0893 19.092L18.3686 19.3252L18.3604 19.3284C17.8437 19.5015 17.3741 19.7916 16.9873 20.1767L16.9857 20.1783C16.5957 20.5683 16.3048 21.0436 16.135 21.5677L16.1342 21.5709L15.9051 22.2697L15.6727 21.5563L15.6703 21.5498C15.4972 21.035 15.2081 20.5668 14.8253 20.1816C14.4364 19.7908 13.9606 19.4976 13.4367 19.326L12.7331 19.0961L13.4716 18.8556Z"
      fill="#C9B5D6" fill-opacity="0.6" />
  </g>
  <defs>
    <clipPath id="clip0_676_3412">
      <rect width="36" height="41" fill="white" />
    </clipPath>
  </defs>
</svg>
