<svg width="22" height="22" viewBox="0 0 22 22" fill="none" xmlns="http://www.w3.org/2000/svg">
  <path
    d="M15.6854 0.344733L16.1094 1.64949C16.241 2.04648 16.4637 2.40716 16.7596 2.70268C17.0556 2.9982 17.4166 3.22037 17.8137 3.3514L19.1185 3.77535L19.1441 3.78266C19.2447 3.81809 19.3319 3.88387 19.3935 3.97094C19.4552 4.058 19.4883 4.16206 19.4883 4.26875C19.4883 4.37543 19.4552 4.47949 19.3935 4.56656C19.3319 4.65362 19.2447 4.71941 19.1441 4.75483L17.8393 5.17879C17.4421 5.30982 17.0811 5.53198 16.7852 5.8275C16.4893 6.12302 16.2666 6.48371 16.135 6.88069L15.711 8.18423C15.6756 8.28486 15.6098 8.37202 15.5227 8.43368C15.4357 8.49533 15.3316 8.52844 15.2249 8.52844C15.1183 8.52844 15.0142 8.49533 14.9271 8.43368C14.8401 8.37202 14.7743 8.28486 14.7389 8.18423L14.3137 6.88069C14.1831 6.48282 13.9612 6.12108 13.6656 5.82446C13.3698 5.52728 13.0085 5.30362 12.6106 5.17148L11.3058 4.74752C11.2052 4.7121 11.118 4.64631 11.0564 4.55925C10.9947 4.47218 10.9616 4.36812 10.9616 4.26144C10.9616 4.15475 10.9947 4.05069 11.0564 3.96363C11.118 3.87656 11.2052 3.81078 11.3058 3.77535L12.6106 3.3514C13.0028 3.21682 13.3584 2.99307 13.6495 2.69776C13.9406 2.40244 14.1592 2.04361 14.2881 1.64949L14.7121 0.345952C14.7472 0.244895 14.813 0.157292 14.9002 0.0952999C14.9874 0.0333074 15.0917 0 15.1987 0C15.3057 0 15.4101 0.0333074 15.4973 0.0952999C15.5845 0.157292 15.6503 0.243677 15.6854 0.344733ZM21.661 10.008L20.7278 9.70584C20.4447 9.61117 20.1874 9.45193 19.9764 9.2407C19.7654 9.02947 19.6064 8.77205 19.512 8.4888L19.2074 7.55805C19.1822 7.48609 19.1352 7.42374 19.073 7.37963C19.0108 7.33552 18.9365 7.31183 18.8602 7.31183C18.784 7.31183 18.7096 7.33552 18.6474 7.37963C18.5852 7.42374 18.5382 7.48609 18.513 7.55805L18.2109 8.4888C18.1182 8.77024 17.9618 9.02649 17.7539 9.23759C17.546 9.44868 17.2921 9.60893 17.0121 9.70584L16.0802 10.008C16.0087 10.0337 15.947 10.0809 15.9034 10.143C15.8598 10.2052 15.8364 10.2792 15.8364 10.3552C15.8364 10.4311 15.8598 10.5052 15.9034 10.5673C15.947 10.6294 16.0087 10.6766 16.0802 10.7024L17.0121 11.0057C17.2961 11.1004 17.5541 11.2601 17.7656 11.472C17.9771 11.6839 18.1362 11.9422 18.2304 12.2264L18.5325 13.1572C18.5577 13.2291 18.6047 13.2915 18.6669 13.3356C18.7291 13.3797 18.8035 13.4034 18.8797 13.4034C18.956 13.4034 19.0303 13.3797 19.0925 13.3356C19.1547 13.2915 19.2017 13.2291 19.2269 13.1572L19.5303 12.2264C19.6248 11.943 19.7839 11.6855 19.9952 11.4743C20.2064 11.2631 20.4639 11.1039 20.7473 11.0094L21.6793 10.7072C21.7507 10.6815 21.8124 10.6343 21.856 10.5722C21.8997 10.51 21.9231 10.436 21.9231 10.36C21.9231 10.2841 21.8997 10.21 21.856 10.1479C21.8124 10.0858 21.7507 10.0386 21.6793 10.0128L21.661 10.008ZM18.8822 14.6203C18.558 14.6199 18.2414 14.5223 17.9733 14.3401C17.7053 14.1452 17.5104 13.8881 17.3886 13.5836L17.0718 12.6065C17.0397 12.5037 16.9808 12.4112 16.9013 12.3385C16.8255 12.2627 16.734 12.2045 16.6332 12.1679L15.7049 11.8634C15.376 11.7415 15.108 11.5454 14.9131 11.2774C14.7181 11.0094 14.6207 10.6914 14.6207 10.3613C14.6207 10.1298 14.6694 9.89832 14.7669 9.69122C14.572 9.64249 14.3892 9.55721 14.2187 9.43538C13.9288 9.2229 13.708 8.92966 13.5839 8.59235L13.1454 7.26201C13.0357 6.98181 12.9261 6.82344 12.7921 6.68943C12.6285 6.53143 12.4328 6.41051 12.2183 6.33491L10.9257 5.90852C10.5602 5.7867 10.2678 5.55401 10.0607 5.26041C9.85363 4.96803 9.74277 4.62691 9.74277 4.26144C9.74277 3.89474 9.85242 3.55241 10.0595 3.26003C10.2666 2.96765 10.559 2.74836 10.9001 2.62531L11.1645 2.54004C9.30028 2.26581 7.39656 2.53785 5.68378 3.32324C3.971 4.10862 2.52261 5.37367 1.51396 6.96523C0.505308 8.55679 -0.0203573 10.4066 0.000603253 12.2908C0.0215638 14.1749 0.588251 16.0126 1.63206 17.5813C2.67587 19.15 4.15204 20.3825 5.88187 21.1296C7.6117 21.8767 9.521 22.1063 11.3786 21.7907C13.2363 21.4751 14.9626 20.6277 16.3486 19.3512C17.7346 18.0747 18.7208 16.4238 19.1879 14.5984C19.0866 14.6121 18.9844 14.6194 18.8822 14.6203ZM9.14339 10.8559C9.16882 10.7154 9.24276 10.5884 9.3523 10.4969C9.46185 10.4054 9.60005 10.3553 9.74277 10.3553C9.8855 10.3553 10.0237 10.4054 10.1332 10.4969C10.2428 10.5884 10.3167 10.7154 10.3422 10.8559L10.3519 10.9655V16.4501L10.3422 16.5598C10.3167 16.7002 10.2428 16.8273 10.1332 16.9188C10.0237 17.0102 9.8855 17.0604 9.74277 17.0604C9.60005 17.0604 9.46185 17.0102 9.3523 16.9188C9.24276 16.8273 9.16882 16.7002 9.14339 16.5598L9.13364 16.4501V10.9655L9.14339 10.8559ZM8.82908 8.22443C8.82908 7.98211 8.92534 7.74971 9.09669 7.57835C9.26805 7.407 9.50045 7.31074 9.74277 7.31074C9.9851 7.31074 10.2175 7.407 10.3889 7.57835C10.5602 7.74971 10.6565 7.98211 10.6565 8.22443C10.6565 8.46676 10.5602 8.69916 10.3889 8.87051C10.2175 9.04186 9.9851 9.13813 9.74277 9.13813C9.50045 9.13813 9.26805 9.04186 9.09669 8.87051C8.92534 8.69916 8.82908 8.46676 8.82908 8.22443Z"
    fill="white" fill-opacity="0.85" />
</svg>
